<mxfile host="app.diagrams.net" modified="2024-07-12T02:57:59.538Z" agent="Mozilla/5.0 (Macintosh; Intel Mac OS X 10_15_7) AppleWebKit/537.36 (KHTML, like Gecko) Chrome/126.0.0.0 Safari/537.36" etag="OEypOC2aRvxoMXAGKlfP" version="24.6.5" type="device">
  <diagram name="페이지-1" id="_2QM_npzIGKCynRWdh93">
    <mxGraphModel dx="984" dy="569" grid="1" gridSize="10" guides="1" tooltips="1" connect="1" arrows="1" fold="1" page="1" pageScale="1" pageWidth="827" pageHeight="1169" math="0" shadow="0">
      <root>
        <mxCell id="0" />
        <mxCell id="1" parent="0" />
        <mxCell id="ejIMZjyYeBHv4LajQtUb-10" value="" style="group" vertex="1" connectable="0" parent="1">
          <mxGeometry x="280" y="120" width="290" height="280" as="geometry" />
        </mxCell>
        <mxCell id="ejIMZjyYeBHv4LajQtUb-4" value="" style="shape=parallelogram;perimeter=parallelogramPerimeter;whiteSpace=wrap;html=1;fixedSize=1;rotation=-175;opacity=50;fillColor=#f8cecc;strokeColor=#b85450;" vertex="1" parent="ejIMZjyYeBHv4LajQtUb-10">
          <mxGeometry x="30" y="50" width="207.92" height="152.27" as="geometry" />
        </mxCell>
        <mxCell id="ejIMZjyYeBHv4LajQtUb-1" value="" style="endArrow=classic;html=1;rounded=0;" edge="1" parent="ejIMZjyYeBHv4LajQtUb-10">
          <mxGeometry width="50" height="50" relative="1" as="geometry">
            <mxPoint x="80" y="160" as="sourcePoint" />
            <mxPoint x="240" y="160" as="targetPoint" />
          </mxGeometry>
        </mxCell>
        <mxCell id="ejIMZjyYeBHv4LajQtUb-2" value="" style="endArrow=classic;html=1;rounded=0;" edge="1" parent="ejIMZjyYeBHv4LajQtUb-10">
          <mxGeometry width="50" height="50" relative="1" as="geometry">
            <mxPoint x="80" y="160" as="sourcePoint" />
            <mxPoint y="280" as="targetPoint" />
          </mxGeometry>
        </mxCell>
        <mxCell id="ejIMZjyYeBHv4LajQtUb-3" value="" style="endArrow=classic;html=1;rounded=0;" edge="1" parent="ejIMZjyYeBHv4LajQtUb-10">
          <mxGeometry width="50" height="50" relative="1" as="geometry">
            <mxPoint x="80" y="160" as="sourcePoint" />
            <mxPoint x="80" as="targetPoint" />
          </mxGeometry>
        </mxCell>
        <mxCell id="ejIMZjyYeBHv4LajQtUb-5" value="" style="endArrow=classic;html=1;rounded=0;strokeWidth=2;fillColor=#d5e8d4;strokeColor=#82b366;" edge="1" parent="ejIMZjyYeBHv4LajQtUb-10">
          <mxGeometry width="50" height="50" relative="1" as="geometry">
            <mxPoint x="80" y="160" as="sourcePoint" />
            <mxPoint x="220" y="80" as="targetPoint" />
          </mxGeometry>
        </mxCell>
        <mxCell id="ejIMZjyYeBHv4LajQtUb-6" value="" style="endArrow=classic;html=1;strokeWidth=2;rounded=0;strokeColor=#3333FF;endFill=1;" edge="1" parent="ejIMZjyYeBHv4LajQtUb-10">
          <mxGeometry width="50" height="50" relative="1" as="geometry">
            <mxPoint x="215" y="118" as="sourcePoint" />
            <mxPoint x="219" y="83" as="targetPoint" />
          </mxGeometry>
        </mxCell>
        <mxCell id="ejIMZjyYeBHv4LajQtUb-7" value="" style="endArrow=none;html=1;rounded=0;endFill=0;dashed=1;" edge="1" parent="ejIMZjyYeBHv4LajQtUb-10">
          <mxGeometry width="50" height="50" relative="1" as="geometry">
            <mxPoint x="215" y="116" as="sourcePoint" />
            <mxPoint x="164" y="112" as="targetPoint" />
          </mxGeometry>
        </mxCell>
        <mxCell id="ejIMZjyYeBHv4LajQtUb-9" value="y - Xb" style="text;html=1;align=center;verticalAlign=middle;whiteSpace=wrap;rounded=0;" vertex="1" parent="ejIMZjyYeBHv4LajQtUb-10">
          <mxGeometry x="229.99999999999994" y="90" width="60" height="30" as="geometry" />
        </mxCell>
      </root>
    </mxGraphModel>
  </diagram>
</mxfile>
